HIERARCHY
ROOT base
{
	OFFSET 0.0 0.0 0.0
	CHANNELS 6 Xposition Yposition Zposition Zrotation Yrotation Xrotation
	JOINT root
	{
		OFFSET 0 0 0
		CHANNELS 6 Xposition Yposition Zposition Zrotation Yrotation Xrotation
		JOINT chest
		{
			OFFSET 0 4.72302 0
			CHANNELS 3 Zrotation Yrotation Xrotation
			JOINT neck
			{
				OFFSET 0 4.47788 0
				CHANNELS 3 Zrotation Yrotation Xrotation
				End Site
				{
					OFFSET 0.0 0.0 0.0
				}
			}
			JOINT right_shoulder
			{
				OFFSET -0.481 4.87 3.6622
				CHANNELS 3 Zrotation Yrotation Xrotation
				JOINT right_elbow
				{
					OFFSET 0 -5.49576 0
					CHANNELS 3 Zrotation Yrotation Xrotation
					JOINT right_wrist
					{
						OFFSET 0 -5.17894 0
						CHANNELS 3 Zrotation Yrotation Xrotation
						End Site
						{
							OFFSET 0.0 0.0 0.0
						}
					}
				}
			}
			JOINT left_shoulder
			{
				OFFSET -0.481 4.87 -3.6622
				CHANNELS 3 Zrotation Yrotation Xrotation
				JOINT left_elbow
				{
					OFFSET 0 -5.49576 0
					CHANNELS 3 Zrotation Yrotation Xrotation
					JOINT left_wrist
					{
						OFFSET 0 -5.17894 0
						CHANNELS 3 Zrotation Yrotation Xrotation
						End Site
						{
							OFFSET 0.0 0.0 0.0
						}
					}
				}
			}
		}
		JOINT right_hip
		{
			OFFSET 0 0 1.69774
			CHANNELS 3 Zrotation Yrotation Xrotation
			JOINT right_knee
			{
				OFFSET 0 -8.43092 0
				CHANNELS 3 Zrotation Yrotation Xrotation
				JOINT right_ankle
				{
					OFFSET 0 -8.1974 0
					CHANNELS 3 Zrotation Yrotation Xrotation
					End Site
					{
						OFFSET 0.0 0.0 0.0
					}
				}
			}
		}
		JOINT left_hip
		{
			OFFSET 0 0 -1.69774
			CHANNELS 3 Zrotation Yrotation Xrotation
			JOINT left_knee
			{
				OFFSET 0 -8.43092 0
				CHANNELS 3 Zrotation Yrotation Xrotation
				JOINT left_ankle
				{
					OFFSET 0 -8.1974 0
					CHANNELS 3 Zrotation Yrotation Xrotation
					End Site
					{
						OFFSET 0.0 0.0 0.0
					}
				}
			}
		}
	}
	JOINT red_arrow
	{
		OFFSET 0 0 0
		CHANNELS 3 Zrotation Yrotation Xrotation
		End Site
		{
			OFFSET 0.0 0.0 0.0
		}
	}
	JOINT blue_arrow
	{
		OFFSET 0 0 0
		CHANNELS 3 Zrotation Yrotation Xrotation
		End Site
		{
			OFFSET 0.0 0.0 0.0
		}
	}
}
MOTION
Frames: 15
Frame Time: 0.0333333333333333
0 18.08466 0 0 0 0 0 0 0 0 -90 0 0 0 0 0 0 0 0 0 -90 0 0 0 0 0 0 0 0 90 0 0 0 0 0 0 0 0 0 0 0 0 0 0 0 0 0 0 0 0 0 0 0 0 0 0 0 0 0 0
0.546564722061157 0 0.0574054326862097 0 1.10624676257758 0 0 17.0082906603813 0 -7.50883975368071 1.24240417244669E-17 1.31484502013603 -3.07895951397069 -5.43845370630791 -0.405183773808722 1.94217339885518 0.0635273464022489 0.396913976576178 -10.7242371238147 6.11795582342034 -5.32967845961371 8.96117660143182 0 0 0 0 0 9.88002941099706 -18.8196973320222 18.8618288187836 37.4131568957832 0 0 0 0 0 30.836458330614 -6.70767091988268 1.61449759451429 -17.3691164178291 0 0 -7.3176720130024 6.64032002843298 0.184042264897314 -3.13175282824256 6.33698966860641 -1.73465452749407 -30.241670003134 0 0 -1.85262525695577 -3.13198587048207 1.43476211985739 0 0 0 0 0 0
1.19720932543278 0 0.0840908084763214 0 0.985676095866669 0 0 17.0186561465263 0 -8.4083840807822 -2.26624409014537 0.188981449897163 -5.09510415516314 -4.27486536556765 -0.578887916921155 -2.95510481956611 -0.736157761747471 0.309305364404293 -7.90119589525866 7.41336497660236 -5.66209573352693 10.3026872261249 0 0 0 0 0 9.70435018333471 -16.0830162707431 15.1172845843865 37.732338465887 0 0 0 0 0 28.4277286051041 -5.00290114802652 4.11038846342802 -15.8912000852217 0 0 -4.94037559757535 8.06285741137191 -5.50912202024295 1.52990249024624 5.91633748393754 -0.408207911605649 -39.0764616379376 0 0 -19.5188187377131 -3.5721153765196 4.2486792394799 0 0 0 0 0 0
1.89581111967564 0 0.143071931228042 0 0.857363344835689 0 0 17.1982869386673 0 -7.85097881581846 -2.41511788084074 -1.04715566185476 -7.22429793346844 -4.19660235112285 -1.38955086638774 -3.6283161065576 -0.528314608690081 0.191930162156786 -5.58067498270426 5.38736361366204 -4.23276752039848 11.5637894488139 0 0 0 0 0 9.35127097346139 -13.7899246849901 11.8991357780169 38.0752583584513 0 0 0 0 0 23.1091781413184 -3.87247368981585 5.75019031889536 -11.3495016551149 0 0 -4.68769816609777 7.10173399953994 -5.24000756869163 6.89501971655592 4.79809423542486 1.55522095611986 -50.4341304917525 0 0 -22.8838673514747 -3.32290749443494 3.87713013313141 0 0 0 0 0 0
2.66404595524073 0 0.12361094802618 0 0.72547436440996 0 0 17.3413433670998 0 -7.04095220974652 -2.48701700330056 -1.90123541495084 -6.71314575940299 -3.46530766925416 -1.48319315877581 -2.54456766361697 -0.133968982120434 -0.341671934005551 -4.59746344875925 8.92476781646862 -5.87382581520742 15.246047736979 0 0 0 0 0 7.29247297875161 -9.76021282167996 8.42510389657854 34.3645702616397 0 0 0 0 0 17.6834929066806 -2.89085961387543 6.61964901029796 -7.36792654827327 0 0 -3.97317332308709 6.61948605497476 -4.88070824903745 12.8268585213607 3.66237437892702 3.4494507930777 -63.2397516382859 0 0 -18.4006554160942 -2.82649480671775 2.72942359314569 0 0 0 0 0 0
3.44167535603046 0 0.0830188220366836 0 0.60109928411977 0 0 17.4250189185143 0 -6.0414305781685 -2.35001659653215 -2.39275737167837 -5.29467979402167 -2.53785215314981 -1.40849105565761 -0.566884881796074 0.117342366368029 -0.556021485438276 -3.13880070216795 10.3295854969701 -6.71299901697217 20.7129345637518 0 0 0 0 0 3.0740610742223 -3.94064439741579 6.27487015478243 30.9799622259936 0 0 0 0 0 13.4246025908307 -2.21236558654956 6.90293143460984 -6.12282148239403 0 0 -1.8712915049956 6.30046228774306 -4.53076999130498 18.8444986446028 3.25156032720537 6.10403367432515 -75.0394156936707 0 0 -9.36866611432145 -2.21750665217681 2.10005480058207 0 0 0 0 0 0
4.1958907559514 0 -0.0154533632099628 0 0.496246072617853 0 0 17.4784243226051 0 -4.95287535697057 -1.9847781529853 -2.2708435484476 -4.12360300663313 -1.7177841372349 -1.25993637950326 1.9530078138017 0.359454490933064 -0.449339132268635 -1.35479857369539 13.1913424473586 -8.07610108756778 25.7932634193531 0 0 0 0 0 -0.828072900633369 1.00090505143462 5.55812700150035 27.8191965649219 0 0 0 0 0 10.0828015515558 -1.43195546318362 6.33530645344812 -6.65759413166794 0 0 1.06380434221271 5.66353160091854 -4.02368008819617 23.8826878450828 2.93031926607824 8.17087397170755 -81.5201450649889 0 0 -1.69036435095494 -2.25694916867506 1.94183040355609 0 0 0 0 0 0
4.8963295891881 0 -0.126748075336218 0 0.410373594500288 0 0 17.496832549572 0 -4.15308399174067 -1.62729505406399 -2.04110440190678 -3.04971341772867 -1.13268698618298 -0.98301275708006 3.69954840865441 0.404379770654307 -0.0407470397687256 0.53546713826004 17.2018825151036 -10.3893299828626 30.4666188683538 0 0 0 0 0 -3.97827472895798 5.83060725586171 6.52460589832339 24.4526458418941 0 0 0 0 0 7.29212363624539 -1.30778406272622 5.62014260723538 -7.49663890186122 0 0 3.96056635131503 5.58634982556101 -3.54733836975907 29.0318319052558 3.09134052137916 10.2452300376786 -83.9892516197594 0 0 3.59334397620363 -2.68254085929673 1.64610818021692 0 0 0 0 0 0
5.5593011893332 0 -0.259322062134743 0 0.365421940808222 0 0 17.4863412499428 0 -3.51148654528177 -0.852478152854168 -1.67706827454086 -2.15801509640405 -0.696035634406951 -0.677118186550133 4.60946604535151 0.359715112369536 0.466733173948544 2.42399816692425 21.3292397461198 -13.0511859773468 33.8444308657757 0 0 0 0 0 -5.33787408598359 9.61365680407734 8.15482611678132 19.4667306911898 0 0 0 0 0 4.88483941448477 -1.847838436537 4.67445458077137 -8.68459748250226 0 0 6.96010975311433 5.64516184593359 -3.00740248125293 33.8460814331145 3.67674744967794 11.5152212397452 -81.8938861861828 0 0 7.65886842189363 -3.2168282208963 1.18919205867418 0 0 0 0 0 0
6.179516864568 0 -0.392428253591061 0 0.379172728933732 0 0 17.4582610726357 0 -3.42037328116889 0.260799583408067 -1.46873282995459 -1.14675640553229 -0.415399221030536 -0.301326841497902 5.31860264718879 0.270933873229085 1.10456017644029 3.94007556739809 25.6219826677075 -16.2537511528288 36.2885799093189 0 0 0 0 0 -5.64333644474744 13.9419028158782 10.6519778033237 12.5525865434465 0 0 0 0 0 2.45494165798495 -3.06920589474776 3.92921281869526 -8.56164127083734 0 0 9.19684406400408 5.93754636155218 -2.44285079153265 38.3911913160736 4.93771806088922 11.8827653701955 -75.239458274082 0 0 11.0754134860975 -3.83659728288459 0.9443697822717 0 0 0 0 0 0
6.76358710825443 0 -0.506421405076981 0 0.464429928018321 0 0 17.4183014512062 0 -4.04276793098129 1.61585816316992 -1.71719431621508 0.0610495309047841 -0.135640195576543 0.200677943111857 5.4578257644195 0.148190210769317 1.63928328598764 4.92653615330164 28.4955514664183 -18.8304551624873 37.4847406933795 0 0 0 0 0 -5.28417053840522 17.7261049973333 13.3347551217719 3.73813478510448 0 0 0 0 0 -0.628136352618532 -5.14623467352895 3.85759235067922 -5.63536283416126 0 0 9.92580415818697 6.77425131178228 -1.84739122390262 42.3112170867158 6.67897638059445 11.6888776682313 -65.2851747286513 0 0 14.8269610333662 -4.83495458363528 0.771154122417688 0 0 0 0 0 0
7.31632141321897 0 -0.620452633500099 0 0.604069244283815 0 0 17.3459801197052 0 -5.1881040966499 2.64229301796914 -2.23184493505172 0.946383101925121 -0.306107729608171 0.669096393935429 5.44433835378015 0.485826707138558 1.91673862211085 6.01309417787576 30.2687260102892 -20.5921909424107 38.1179777766151 0 0 0 0 0 -7.09304179022065 21.2903236515799 14.3248776461744 -0.000631036014338079 0 0 0 0 0 -4.16012770134115 -8.34989402826458 4.32772818020274 -0.814963230727112 0 0 9.61112613593519 8.95458898984156 -0.982348748866625 45.0270754300793 8.37005151933242 11.154780127662 -53.7085948968429 0 0 16.8799998182646 -5.11816060334068 0.661212382733989 0 0 0 0 0 0
7.83734647482634 0 -0.764800496399403 0 0.734888893504108 0 0 17.2486159324646 0 -6.51064723460179 2.46956329108327 -2.56082130063427 1.34701276292447 -0.0698177504979206 0.807076191593872 5.02533939620267 1.0155828947034 1.92050193400197 7.2761324801088 30.2653711786857 -21.0071591261757 39.356656488259 0 0 0 0 0 -9.81423524046979 23.1286706041608 13.2220391286309 -1.37485748668981E-05 0 0 0 0 0 -5.15365845803652 -9.1961954698709 4.28250830454391 0.00443776783710701 0 0 11.1039120878354 9.81581499602311 -0.134064053827277 46.7676512694567 10.0369879400611 10.822856316437 -43.7164857637886 0 0 15.9645623630251 -4.28332820519583 0.620943487035596 0 0 0 0 0 0
8.37143689095974 0 -0.942271640151739 0 0.856591344106512 0 0 17.1399727106094 0 -7.67162500115205 2.29167191485427 -2.55143589160788 1.04806388965429 -0.0298021539282664 0.439648506097121 4.54070324505603 1.29716167568862 1.77998452877655 8.01953004633322 29.7171785654003 -21.5849891693832 42.4308938978305 0 0 0 0 0 -11.6745169869802 24.5201934509162 12.0238090271449 -0.0187292524881411 0 0 0 0 0 -5.83605910037938 -9.61243158572729 3.7276545157196 0.000405560668432065 0 0 13.0570405288101 10.1225476944093 0.791306704146811 47.1271386215288 11.2398587232504 9.9675257791578 -34.9527451718261 0 0 13.6166716110339 -3.18064070795368 0.640691870474475 0 0 0 0 0 0
8.92549520432949 0 -1.15682968497276 0 0.978789088502827 0 0 17.0220753669739 0 -8.73216256429323 2.29487418452596 -2.32526129779199 0.444240319423705 -0.177189202452758 0.000534747869746838 3.3464282092628 1.49507066237349 1.27214028726428 8.68823427369587 29.0229473829147 -22.1424499200654 45.5818104261191 0 0 0 0 0 -12.8511447996566 24.0665381706206 10.3490819622365 -2.2434924757016E-05 0 0 0 0 0 -6.6268312640714 -9.44960805170231 2.86849759685047 0.000579388961964806 0 0 14.8525360326779 9.50364128728295 1.60924786397809 46.2256746348685 11.8767258540463 8.57064628729163 -27.9802865764966 0 0 10.4419102902032 -2.16478978209253 0.615412334000609 0 0 0 0 0 0
